<svg width="530" height="74" viewBox="0 0 530 74" fill="none" xmlns="http://www.w3.org/2000/svg">
<g clip-path="url(#clip0_48_52)">
<path d="M477.26 34.07C480.866 34.44 480.866 34.44 484.544 34.8175C498.065 36.2674 510.867 37.8768 523.733 40.4523C528.537 43.7956 528.537 43.7956 527.854 46.8178C525.612 49.6057 525.612 49.6057 517.952 51.0749C512.663 50.7487 512.663 50.7487 506.413 50.0253C504.009 49.7599 501.605 49.4944 499.128 49.221C496.467 48.9228 493.806 48.6247 491.064 48.3176C354.216 33.8599 213.806 31.2133 80.4859 36.7466C77.9835 36.85 77.9835 36.85 75.4304 36.9555C67.4785 37.2884 59.5441 37.6423 51.6233 38.0249C35.5363 38.7536 21.6086 39.1385 5.01364 37.2605C0.20915 33.9172 0.20915 33.9172 0.5751 30.9355C3.13457 28.1071 3.13457 28.1071 8.78654 26.9211C15.8567 25.9938 22.3687 25.5211 29.9554 25.2093C32.7511 25.0938 35.5468 24.9782 38.4273 24.8592C41.4636 24.7455 44.4998 24.6318 47.6281 24.5146C52.4343 24.3316 52.4343 24.3316 57.3375 24.1449C145.696 20.8987 235.18 20.4849 325.899 23.6111C327.872 23.6769 329.845 23.7426 331.879 23.8104C380.078 25.4901 429.305 29.1398 477.26 34.07Z" fill="#FF0A6C"/>
</g>
<defs>
<clipPath id="clip0_48_52">
<rect width="527.73" height="37" fill="white" transform="translate(2.58105) rotate(4)"/>
</clipPath>
</defs>
</svg>
